<?xml version="1.0" encoding="utf-8"?>
<!-- Generator: Adobe Illustrator 24.0.0, SVG Export Plug-In . SVG Version: 6.00 Build 0)  -->
<svg version="1.1" id="Layer_1" xmlns="http://www.w3.org/2000/svg" xmlns:xlink="http://www.w3.org/1999/xlink" x="0px" y="0px"
	 viewBox="0 0 24 24" style="enable-background:new 0 0 24 24;" xml:space="preserve">
<style type="text/css">
	.st0{fill:#FFFFFF;}
</style>
<g>
	<path class="st0" d="M9.5,24c0-3.6,0-7.2,0-10.8c-1.4,0-2.7,0-4,0c0-1.5,0-2.8,0-4.3c1.3,0,2.6,0,3.9,0c0-0.7,0-1.3,0-1.9
		c0-1,0-2.1,0.1-3.1c0.4-2.5,1.7-3.7,4.2-3.9c1.5-0.1,3,0,4.6,0c0,1.2,0,2.4,0,3.6c-0.5,0-1.1,0-1.6,0c-0.6,0.1-1.2,0.2-1.8,0.4
		c-0.3,0.1-0.6,0.5-0.6,0.8c-0.1,1.3,0,2.6,0,3.9c1,0,1.9,0,2.9,0c1.2,0,1.2-0.2,1,1.2c-0.2,1-0.4,1.9-0.5,2.9
		c-0.1,0.3-0.2,0.4-0.5,0.4c-1,0-2,0-3,0c0,3.6,0,7.2,0,10.8C12.7,24,11.2,24,9.5,24z"/>
</g>
<g>
	<path class="st0" d="M-1013.7-77.9c-24.7,0-48.2,0-71.7,0c-15.3,0-30.7-0.1-46,0.1c-3.3,0-5.4-0.9-7.3-3.7
		c-35.9-52.3-71.8-104.5-107.8-156.7c-1.1-1.6-2.3-3.2-3.8-5.4c-8,9.3-15.8,18.3-23.6,27.3c-33.8,39.3-67.5,78.6-101.3,117.9
		c-5.1,5.9-10.2,11.9-15.4,17.8c-1.1,1.2-2.8,2.7-4.3,2.7c-10.8,0.2-21.5,0.1-33.6,0.1c54.5-63.4,108.2-126,162.3-188.9
		c-53.8-78.1-107.5-156.2-161.6-234.9c2.5-0.1,4.1-0.3,5.6-0.3c37.3,0,74.7,0,112-0.1c3.4,0,5.3,1.1,7.2,3.9
		c33.8,49.3,67.7,98.5,101.6,147.7c0.9,1.3,1.9,2.6,3.2,4.4c5.3-6,10.3-11.8,15.2-17.5c38.9-45.2,77.8-90.4,116.7-135.6
		c1-1.2,2.6-2.6,3.9-2.6c10.9-0.2,21.8-0.1,33.9-0.1c-51.7,60.2-102.7,119.5-153.9,179.1C-1126.3-241.5-1070.3-160.1-1013.7-77.9z
		 M-1374.6-474c1.3,2,1.8,3,2.5,3.9c29.2,42.4,58.3,84.8,87.5,127.1c53.5,77.7,107,155.4,160.4,233.2c2,2.9,4.1,4.2,7.6,4.1
		c15.2-0.2,30.3-0.1,45.5-0.1c1.2,0,2.4-0.2,4.1-0.4c-13.6-19.8-26.9-39.2-40.2-58.5c-68.2-99.1-136.6-198.2-204.4-297.5
		c-6.2-9-12.2-13.1-23.2-12.1C-1347.7-473.2-1360.7-474-1374.6-474z"/>
</g>
</svg>
