<?xml version="1.0" encoding="utf-8"?>
<!-- Generator: Adobe Illustrator 24.0.0, SVG Export Plug-In . SVG Version: 6.00 Build 0)  -->
<svg version="1.1" id="Layer_1" xmlns="http://www.w3.org/2000/svg" xmlns:xlink="http://www.w3.org/1999/xlink" x="0px" y="0px"
	 viewBox="0 0 24 24" style="enable-background:new 0 0 24 24;" xml:space="preserve">
<style type="text/css">
	.st0{fill:#FFFFFF;}
</style>
<g>
	<path class="st0" d="M0,11.7C0,10.2,0,8.5,0.1,6.8c0-1.3,0.3-2.5,1-3.6C2,1.7,3.2,0.8,4.9,0.4C5.7,0.1,6.6,0,7.5,0
		c2.7,0,5.4,0,8.2,0c1,0,2,0,2.9,0.2c2,0.4,3.5,1.5,4.5,3.3c0.5,0.9,0.7,1.9,0.8,2.9C24,8.2,24,10.1,24,11.9c0,1.8,0,3.5-0.1,5.3
		c0,1.3-0.3,2.5-1,3.6c-0.9,1.6-2.3,2.5-4.1,2.9c-0.7,0.1-1.3,0.2-2,0.3c-3,0.1-5.9,0.1-8.9,0c-0.9,0-1.8-0.1-2.7-0.3
		c-2.5-0.6-4.1-2.1-4.8-4.6c-0.2-0.8-0.3-1.7-0.3-2.5C0,15,0,13.5,0,11.7z M2.2,12C2.2,12,2.2,12,2.2,12c0,1,0,2.1,0,3.1
		c0,0.9,0.1,1.8,0.1,2.6c0.1,0.8,0.3,1.5,0.7,2.1c0.7,1.1,1.8,1.6,3,1.8c0.8,0.1,1.6,0.1,2.4,0.2c2,0,4,0,6,0c1.1,0,2.2-0.1,3.3-0.1
		c0.8-0.1,1.5-0.3,2.1-0.7c1.1-0.7,1.6-1.8,1.8-3c0.1-0.8,0.2-1.6,0.2-2.4c0-2.2,0-4.4,0-6.6c0-1,0-2-0.2-3
		c-0.2-1.2-0.8-2.2-1.8-2.8c-0.8-0.5-1.7-0.7-2.6-0.8c-0.8,0-1.6-0.1-2.4-0.1c-2.5,0-4.9,0-7.4,0c-0.7,0-1.4,0.1-2,0.3
		C4,2.9,3,3.8,2.6,5.1C2.3,5.9,2.2,6.6,2.2,7.4C2.2,8.9,2.2,10.4,2.2,12z"/>
	<path class="st0" d="M12,5.8c3.4,0,6.2,2.7,6.2,6.1c0,3.4-2.7,6.2-6.1,6.2c-3.4,0-6.2-2.7-6.2-6.1C5.8,8.6,8.6,5.8,12,5.8z M12,8
		c-2.2,0-4,1.8-4,4c0,2.2,1.8,4,4,4c2.2,0,4-1.8,4-4C16,9.8,14.2,8,12,8z"/>
	<path class="st0" d="M17,5.6c0-0.8,0.6-1.4,1.4-1.4c0.8,0,1.4,0.6,1.4,1.5c0,0.8-0.7,1.4-1.5,1.4C17.6,7,17,6.4,17,5.6z"/>
</g>
</svg>
