<?xml version="1.0" encoding="utf-8"?>
<!-- Generator: Adobe Illustrator 24.0.0, SVG Export Plug-In . SVG Version: 6.00 Build 0)  -->
<svg version="1.1" id="Layer_1" xmlns="http://www.w3.org/2000/svg" xmlns:xlink="http://www.w3.org/1999/xlink" x="0px" y="0px"
	 viewBox="0 0 24 24" style="enable-background:new 0 0 24 24;" xml:space="preserve">
<style type="text/css">
	.st0{fill:#FFFFFF;}
</style>
<g>
	<path class="st0" d="M-620.19,8.94c0-34.53,0-68.65,0-103.3c-13.14,0-25.41,0-38.02,0c0-13.92,0-27.3,0-41.31
		c12.64,0,24.85,0,37.85,0c0-6.4-0.14-12.17,0.03-17.93c0.29-9.81-0.16-19.77,1.37-29.4c3.74-23.49,16.64-35.69,40.39-37.59
		c14.37-1.15,28.9-0.21,43.87-0.21c0,11.46,0,22.83,0,34.98c-5.18,0-10.35-0.47-15.4,0.12c-5.88,0.69-11.9,1.65-17.36,3.79
		c-2.69,1.05-5.88,4.93-6.03,7.67c-0.65,12.24-0.28,24.52-0.28,37.13c9.2,0,18.66-0.29,28.1,0.07c11.39,0.43,11.6-1.83,9.32,11.28
		c-1.6,9.18-3.62,18.28-5.16,27.47c-0.52,3.09-1.68,4.19-4.84,4.13c-9.47-0.18-18.95-0.06-28.94-0.06c0,34.66,0,68.73,0,103.16
		C-590.18,8.94-604.57,8.94-620.19,8.94z"/>
</g>
<g>
	<path class="st0" d="M1.64,12.34C1.67,9.99,1.89,8,2.66,6.12c1.22-3,3.34-5.01,6.53-5.76c2.56-0.6,5.1-0.52,7.55,0.52
		c2.57,1.1,4.28,3.02,5.24,5.62c0.1,0.26,0.16,0.53,0.25,0.79c0.07,0.21,0,0.31-0.21,0.36c-0.47,0.12-0.93,0.24-1.4,0.37
		c-0.31,0.08-0.35,0.06-0.43-0.25c-0.27-0.95-0.67-1.84-1.25-2.64c-1.03-1.4-2.43-2.26-4.1-2.69C12.88,1.94,10.92,1.99,9,2.63
		C6.6,3.43,5.1,5.12,4.37,7.52c-0.59,1.94-0.74,3.94-0.59,5.96c0.1,1.32,0.37,2.61,0.89,3.84c0.91,2.15,2.49,3.55,4.73,4.17
		c2.11,0.58,4.22,0.54,6.27-0.23c1.71-0.64,2.93-1.82,3.43-3.63c0.44-1.58-0.09-3.08-1.4-4.09c-0.21-0.16-0.32-0.13-0.38,0.13
		c-0.19,0.8-0.45,1.58-0.87,2.29c-0.79,1.37-2.01,2.08-3.55,2.27c-1,0.13-1.99,0.07-2.93-0.33c-1.49-0.63-2.47-2.09-2.4-3.68
		c0.07-1.62,0.91-2.75,2.36-3.45c0.9-0.43,1.86-0.56,2.84-0.56c0.71,0,1.42,0.05,2.13,0.08c0.27,0.01,0.35-0.07,0.28-0.34
		c-0.35-1.44-1.31-2.2-2.78-2.23c-0.8-0.01-1.56,0.11-2.21,0.62c-0.18,0.14-0.34,0.31-0.5,0.47C9.56,8.95,9.44,8.95,9.3,8.86
		c-0.44-0.3-0.88-0.59-1.32-0.88c-0.16-0.1-0.16-0.23-0.05-0.36c0.93-1.13,2.09-1.83,3.57-1.98c0.98-0.1,1.94,0,2.86,0.37
		c1.6,0.63,2.47,1.88,2.87,3.5c0.1,0.42,0.15,0.85,0.19,1.29c0.02,0.19,0.13,0.25,0.27,0.32c0.98,0.45,1.82,1.08,2.47,1.95
		c0.91,1.23,1.31,2.62,1.13,4.13c-0.34,2.89-2.03,4.78-4.61,5.93c-1.76,0.78-3.61,0.98-5.52,0.83c-1.4-0.11-2.76-0.42-4.04-1.03
		c-1.86-0.9-3.18-2.34-4.08-4.18C2.32,17.23,1.91,15.65,1.76,14C1.69,13.34,1.67,12.68,1.64,12.34z M13.26,12.28
		c-0.55,0.04-1,0.06-1.45,0.11c-0.64,0.07-1.23,0.28-1.69,0.77c-0.82,0.87-0.65,2.01,0.39,2.59c0.2,0.11,0.41,0.2,0.63,0.27
		c1.11,0.34,2.15,0.27,3.03-0.57c0.78-0.73,1.08-1.69,1.13-2.73c0.01-0.16-0.08-0.23-0.23-0.24C14.43,12.41,13.8,12.34,13.26,12.28z
		"/>
</g>
<g>
	<path class="st0" d="M-1013.67-77.88c-24.68,0-48.17,0-71.66,0c-15.33,0-30.66-0.09-45.99,0.07c-3.31,0.03-5.36-0.88-7.32-3.74
		c-35.86-52.3-71.84-104.51-107.81-156.74c-1.12-1.62-2.29-3.21-3.83-5.35c-8.04,9.31-15.85,18.3-23.61,27.33
		c-33.76,39.28-67.5,78.57-101.26,117.86c-5.1,5.94-10.15,11.92-15.37,17.75c-1.11,1.24-2.85,2.66-4.32,2.69
		c-10.77,0.23-21.54,0.12-33.56,0.12c54.49-63.42,108.24-126,162.3-188.93c-53.77-78.14-107.47-156.17-161.63-234.87
		c2.46-0.13,4.05-0.3,5.63-0.3c37.33-0.01,74.65,0.03,111.98-0.09c3.4-0.01,5.3,1.11,7.23,3.92
		c33.78,49.27,67.7,98.46,101.59,147.66c0.92,1.34,1.92,2.61,3.23,4.38c5.25-6.04,10.27-11.75,15.23-17.51
		c38.89-45.19,77.76-90.4,116.68-135.57c1-1.17,2.55-2.62,3.86-2.65c10.91-0.21,21.83-0.12,33.95-0.12
		c-51.73,60.19-102.69,119.47-153.94,179.11C-1126.27-241.48-1070.28-160.13-1013.67-77.88z M-1374.6-474.04
		c1.25,1.99,1.83,2.98,2.47,3.92c29.15,42.37,58.3,84.75,87.46,127.11c53.5,77.73,107.04,155.44,160.45,233.23
		c2.03,2.95,4.05,4.17,7.64,4.12c15.16-0.19,30.33-0.08,45.5-0.1c1.21,0,2.41-0.23,4.08-0.4c-13.64-19.84-26.91-39.17-40.21-58.49
		c-68.22-99.13-136.58-198.16-204.44-297.54c-6.15-9.01-12.19-13.06-23.19-12.1C-1347.69-473.19-1360.71-474.04-1374.6-474.04z"/>
</g>
</svg>
