<?xml version="1.0" encoding="utf-8"?>
<!-- Generator: Adobe Illustrator 24.0.0, SVG Export Plug-In . SVG Version: 6.00 Build 0)  -->
<svg version="1.1" id="Layer_1" xmlns="http://www.w3.org/2000/svg" xmlns:xlink="http://www.w3.org/1999/xlink" x="0px" y="0px"
	 viewBox="0 0 24 24" style="enable-background:new 0 0 24 24;" xml:space="preserve">
<style type="text/css">
	.st0{fill:#FFFFFF;}
</style>
<g>
	<path class="st0" d="M-620.2,8.9c0-34.5,0-68.7,0-103.3c-13.1,0-25.4,0-38,0c0-13.9,0-27.3,0-41.3c12.6,0,24.8,0,37.8,0
		c0-6.4-0.1-12.2,0-17.9c0.3-9.8-0.2-19.8,1.4-29.4c3.7-23.5,16.6-35.7,40.4-37.6c14.4-1.1,28.9-0.2,43.9-0.2c0,11.5,0,22.8,0,35
		c-5.2,0-10.3-0.5-15.4,0.1c-5.9,0.7-11.9,1.6-17.4,3.8c-2.7,1.1-5.9,4.9-6,7.7c-0.7,12.2-0.3,24.5-0.3,37.1
		c9.2,0,18.7-0.3,28.1,0.1c11.4,0.4,11.6-1.8,9.3,11.3c-1.6,9.2-3.6,18.3-5.2,27.5c-0.5,3.1-1.7,4.2-4.8,4.1
		c-9.5-0.2-19-0.1-28.9-0.1c0,34.7,0,68.7,0,103.2C-590.2,8.9-604.6,8.9-620.2,8.9z"/>
</g>
<g>
	<path class="st0" d="M23.7,24c-1.4,0-2.7,0-4.1,0c-0.9,0-1.7,0-2.6,0c-0.2,0-0.3,0-0.4-0.2c-2-3-4.1-5.9-6.1-8.9
		c-0.1-0.1-0.1-0.2-0.2-0.3c-0.5,0.5-0.9,1-1.3,1.5c-1.9,2.2-3.8,4.4-5.7,6.7c-0.3,0.3-0.6,0.7-0.9,1C2.3,23.9,2.3,24,2.2,24
		c-0.6,0-1.2,0-1.9,0c3.1-3.6,6.1-7.1,9.2-10.7C6.4,8.9,3.4,4.5,0.3,0c0.1,0,0.2,0,0.3,0C2.7,0,4.8,0,7,0c0.2,0,0.3,0.1,0.4,0.2
		c1.9,2.8,3.8,5.6,5.7,8.4c0.1,0.1,0.1,0.1,0.2,0.2c0.3-0.3,0.6-0.7,0.9-1c2.2-2.6,4.4-5.1,6.6-7.7C20.8,0.1,20.9,0,21,0
		c0.6,0,1.2,0,1.9,0c-2.9,3.4-5.8,6.8-8.7,10.1C17.4,14.7,20.5,19.3,23.7,24z M3.3,1.6c0.1,0.1,0.1,0.2,0.1,0.2
		C5.1,4.2,6.8,6.6,8.4,9c3,4.4,6.1,8.8,9.1,13.2c0.1,0.2,0.2,0.2,0.4,0.2c0.9,0,1.7,0,2.6,0c0.1,0,0.1,0,0.2,0
		c-0.8-1.1-1.5-2.2-2.3-3.3C14.6,13.5,10.7,7.9,6.9,2.3C6.5,1.7,6.2,1.5,5.6,1.6C4.8,1.6,4.1,1.6,3.3,1.6z"/>
</g>
</svg>
