<?xml version="1.0" encoding="utf-8"?>
<!-- Generator: Adobe Illustrator 24.0.0, SVG Export Plug-In . SVG Version: 6.00 Build 0)  -->
<svg version="1.1" id="Layer_1" xmlns="http://www.w3.org/2000/svg" xmlns:xlink="http://www.w3.org/1999/xlink" x="0px" y="0px"
	 viewBox="0 0 192 192" style="enable-background:new 0 0 192 192;" xml:space="preserve">
<style type="text/css">
	.st0{display:none;}
	.st1{display:inline;}
	.st2{display:inline;fill:#FFFFFF;}
</style>
<path d="M96.01,114.73c0,0-47.57-0.26-96.01-32.45l0.22-37.32c0,0,63.88,38.78,90.56,35.12c25.3-3.47,53.77-1.01,62.02-80.08h38.97
	C188.57,79.44,150.27,114.74,96.01,114.73z"/>
<path d="M192,190.95V192h-1.86c-9.03-8.21-46.91-40.38-79.42-33.98c0,0-36.28-1.97-53.38,33.98H13.22
	c15.21-49.68,57.12-72.49,93.99-69.1c47.73,4.39,83.03,33.8,83.03,33.8L192,190.95z"/>
<g>
	<path d="M191.77,0c-3.2,79.44-41.5,114.74-95.76,114.73c0,0-47.57-0.26-96.01-32.45l0.22-37.32c0,0,63.88,38.78,90.56,35.12
		c25.3-3.47,53.77-1.01,62.02-80.08H191.77z"/>
</g>
<g>
	<path d="M192.15,193.87c0,0-0.7-0.69-2.01-1.87c-9.03-8.21-46.91-40.38-79.42-33.98c0,0-36.28-1.97-53.38,33.98H13.22
		c15.21-49.68,57.12-72.49,93.99-69.1c47.73,4.39,83.03,33.8,83.03,33.8l1.76,34.25L192.15,193.87z"/>
</g>
</svg>
