<?xml version="1.0" encoding="utf-8"?>
<!-- Generator: Adobe Illustrator 24.0.0, SVG Export Plug-In . SVG Version: 6.00 Build 0)  -->
<svg version="1.1" id="Layer_1" xmlns="http://www.w3.org/2000/svg" xmlns:xlink="http://www.w3.org/1999/xlink" x="0px" y="0px"
	 viewBox="0 0 619.47 150" style="enable-background:new 0 0 619.47 150;" xml:space="preserve">
<style type="text/css">
	.st0{fill:#FFFEF7;}
	.st1{display:none;}
	.st2{display:inline;}
</style>
<g>
	<g>
		<path class="st0" d="M557.53,77.04c-2.7,0-5.4,0-8.1,0v73.28h41.27C579.65,125.89,568.59,101.47,557.53,77.04z"/>
		<path class="st0" d="M588.7,0.32h-39.26v61.84c2.92-0.06,5.84-0.12,8.75-0.18C568.36,41.43,578.53,20.87,588.7,0.32z"/>
		<path class="st0" d="M140.95,125.5V25.14c0-10.13,4.69-19.11,11.92-24.82h-21.6v150h21.6
			C145.64,144.61,140.95,135.63,140.95,125.5z"/>
		<path class="st0" d="M471.9,28.06v42.59v12.32h-15.73h-1.78H415.4v36.69c0,11.73,9.13,21.24,20.38,21.24
			c10.05,0,18.35-7.59,20.03-17.56h16.05c-0.24,11.13-5.59,20.92-13.69,26.98h75.31v-150H458.2C466.48,6.52,471.9,16.62,471.9,28.06
			z"/>
		<path class="st0" d="M298.08,56.55c-11.32,0-20.5,8.71-21.44,19.77v74h42.49V77.57C319.13,65.96,309.7,56.55,298.08,56.55z"/>
		<path class="st0" d="M201.35,25.14v6.97h-13.13v-8c0-8.5-6.66-15.39-14.88-15.39c-8.22,0-14.88,6.89-14.88,15.39v99.57
			c0,8.5,6.66,15.39,14.88,15.39c8.22,0,14.88-6.89,14.88-15.39v-8h13.13v9.82c0,10.13-4.69,19.11-11.92,24.82h69.96v-150h-69.96
			C196.66,6.02,201.35,15,201.35,25.14z"/>
		<path class="st0" d="M571.1,69.06c12.47,27.09,24.94,54.18,37.41,81.26h11.22v-150h-14.03C594.17,23.23,582.64,46.14,571.1,69.06z
			"/>
		<path class="st0" d="M435.79,7.92c-11.26,0-20.38,9.51-20.38,21.24v41.48h40.76V29.17C456.17,17.44,447.04,7.92,435.79,7.92z"/>
		<path class="st0" d="M276.64,58.39c3.39-10.46,13.22-18.03,24.82-18.03c18.7,0,33.86,15.14,33.86,33.82v76.14h78.09
			c-8.29-6.2-13.71-16.3-13.71-27.74V82.97V70.65V28.06c0-11.44,5.42-21.54,13.71-27.74H276.64V58.39z"/>
	</g>
	<g>
		<g>
			<path class="st0" d="M114.02,117.83c0,15.11-5.77,23.45-6.22,24.07l-5.22-2.85c0.68-1.27,3.2-9.62-1.18-18.77
				c-1.63-3.81-9.83-8.59-17.14-8.89c-4.03-0.17-6.86,1.03-8.43,3.55c-1.77,14.14,17.4,28.09,27.9,29.77l-0.83,5.61
				c-5.78-0.57-12.7-1.93-20.18-3.83l-0.39,0.49c-0.05-0.03-0.54-0.37-1.41-0.96c-31.6-8.29-72.12-25.68-79.1-34.15
				c-1.23-1.5-1.75-2.98-1.52-4.38l0.41-2.53l2.73,0.13c26.98,1.27,69.6,28.69,80.14,35.74c-8.56-6.93-15.31-16.8-13.67-27.2
				l0.07-0.45l0.22-0.41c2.61-4.81,7.69-7.31,14.32-7.03c9.31,0.39,19.79,6.15,22.44,12.34c0.29,0.6,0.55,1.2,0.79,1.79
				c0.45-12.06-3-29.72-18.49-52.09l5.08-3.08C109.78,86.98,114.01,104.89,114.02,117.83z M10.57,111.71
				c8.94,5.84,30.35,15.5,52.17,22.91C47.78,125.83,27.03,115.02,10.57,111.71z"/>
		</g>
		<g>
			<path class="st0" d="M109.33,49.14c0,3.47-0.61,6.65-1.85,9.48c-2.44,5.56-7.17,9.05-12.95,9.56
				c-16.62,2.71-26.83-8.53-28.42-16.99C65.03,45.44,67.7,41,72.76,40.15l0.53-0.04c13.91,0,19.18,15.43,20.86,22.42
				c3.55-0.46,6.21-2.59,7.74-6.06c3.93-8.95,0.16-27.45-22.21-52.52l4.64-3.63C100.53,18.48,109.33,35.93,109.33,49.14z
				 M71.92,48.66c0,0.6,0.08,1.15,0.15,1.54c0.98,5.22,6.57,11.87,15.92,12.62c-1.55-5.94-5.6-16.81-14.4-17.05
				C72.24,46.13,71.92,47.46,71.92,48.66z"/>
		</g>
	</g>
</g>
<g class="st1">
	<g class="st2">
		<g>
			<path d="M-68.08-284.66c0,0-8.36-8.16-15.4-6.78c0,0-12.75-0.69-11.68,17.02c1.06,17.71,8.23,17.57,16.2,23.39
				s11.68,8.44,12.21,26.15s-7.04,25.51-18.13,25.51c0,0-9-0.05-18.16-6.14l0.04-7.06c0,0,12.08,7.33,17.13,6.64
				c5.04-0.69,10.75-0.14,11.95-17.71s-7.04-19.65-15.8-25.74c-8.76-6.09-12.48-9.96-13.28-26.01c-0.8-16.05,9.82-23.52,18.85-22.69
				s15.7,6.39,15.7,6.39L-68.08-284.66z"/>
		</g>
		<g>
			<rect x="-6.08" y="-298.14" width="7.3" height="98.78"/>
		</g>
		<g>
			<path d="M83.97-298.14h-0.74c-10.98,0-19.88,9.28-19.88,20.72v27.22v6.09v24.03c0,11.44,8.9,20.72,19.88,20.72h0.74
				c10.83,0,19.62-9.03,19.86-20.25h-6.82c-0.39,7.4-6.21,13.28-13.4,13.28c-7.44,0-13.48-6.29-13.48-14.05v-23.73h23.9h3.05h6.77
				v-6.09v-27.22C103.85-288.86,94.95-298.14,83.97-298.14z M70.13-250.2v-27.61c0-7.76,6.03-14.05,13.48-14.05
				c7.44,0,13.48,6.29,13.48,14.05v27.61H70.13z"/>
		</g>
		<g>
			<path d="M184.01-298.14h-0.74c-10.98,0-19.88,9.28-19.88,20.72v27.22v6.09v24.03c0,11.44,8.9,20.72,19.88,20.72h0.74
				c10.83,0,19.62-9.03,19.86-20.25h-6.82c-0.39,7.4-6.21,13.28-13.4,13.28c-7.44,0-13.48-6.29-13.48-14.05v-23.73h23.9h3.05h6.77
				v-6.09v-27.22C203.89-288.86,194.99-298.14,184.01-298.14z M170.17-250.2v-27.61c0-7.76,6.03-14.05,13.48-14.05
				s13.48,6.29,13.48,14.05v27.61H170.17z"/>
		</g>
		<g>
			<path d="M586.73-298.14h-4.04c-10.98,0-19.88,9.28-19.88,20.72v25.84v7.47v24.03c0,11.44,8.9,20.72,19.88,20.72h4.04
				c10.83,0,19.62-9.03,19.86-20.25h-9.74c-1.02,6.05-6.05,10.66-12.15,10.66c-6.83,0-12.36-5.77-12.36-12.89v-22.26h23.65h1.08
				h9.55v-7.47v-25.84C606.61-288.86,597.71-298.14,586.73-298.14z M572.33-251.58v-25.17c0-7.12,5.54-12.89,12.36-12.89
				c6.83,0,12.36,5.77,12.36,12.89v25.17H572.33z"/>
		</g>
		<g>
			<polygon points="281.62,-252.97 304.77,-296.42 297.02,-296.42 275.11,-255.04 270.47,-255.04 270.47,-298.14 263.43,-298.14 
				263.43,-199.36 270.47,-199.36 270.47,-249.09 274.98,-249.09 298.61,-201.21 306.31,-201.21 			"/>
		</g>
		<g>
			<path d="M689.47-252.55c7.36-14.62,14.72-29.24,22.08-43.87c-3.42-0.05-6.84-0.09-10.27-0.14c-6.55,13.24-13.1,26.48-19.65,39.71
				c-1.77,0.04-3.54,0.07-5.31,0.11v-41.41h-9.68v98.78h9.68v-48.34c1.64,0,3.27,0,4.91,0c7.04,15.54,14.07,31.09,21.11,46.63
				c3.58-0.05,7.17-0.09,10.75-0.14C705.22-218.33,697.34-235.44,689.47-252.55z"/>
		</g>
		<g>
			<path d="M480.54-269.96c-7.04,0-13,4.59-15.06,10.94v-39.12h-10.47v98.78h0.89h8.81h0.66h0.11v-48.78
				c0.57-6.71,6.14-11.99,13.01-11.99c7.05,0,12.77,5.71,12.77,12.75v48.02h9.82v-50.08C501.08-260.77,491.88-269.96,480.54-269.96z
				"/>
		</g>
		<g>
			<path d="M397.12-274.97v-4.23c0-10.46-8.2-18.94-18.32-18.94h0c-10.12,0-18.32,8.48-18.32,18.94v60.89
				c0,10.46,8.2,18.94,18.32,18.94h0c10.12,0,18.32-8.48,18.32-18.94v-5.96h-7.97v4.85c0,5.16-4.04,9.33-9.03,9.33
				c-4.99,0-9.03-4.18-9.03-9.33v-60.4c0-5.16,4.04-9.33,9.03-9.33c4.99,0,9.03,4.18,9.03,9.33v4.85H397.12z"/>
		</g>
	</g>
</g>
</svg>
